<svg width="104" height="50" viewBox="0 0 104 50" fill="none" xmlns="http://www.w3.org/2000/svg">
<mask id="mask0_184_12" style="mask-type:alpha" maskUnits="userSpaceOnUse" x="0" y="0" width="104" height="50">
<rect width="104" height="50" fill="#D9D9D9"/>
</mask>
<g mask="url(#mask0_184_12)">
<path d="M20.8538 7.79688V16.1953H15.971V36.1562C15.8928 38.3177 15.6585 39.8411 15.2678 40.7266C14.8772 41.612 14.1806 42.4453 13.178 43.2266C12.1754 44.0078 10.9189 44.6003 9.40846 45.0039C7.89805 45.4076 6.53086 45.6745 5.3069 45.8047C4.08294 45.9349 2.45534 46 0.424088 46V37.6016C1.56992 37.6276 2.48789 37.5885 3.17799 37.4844C3.8681 37.3802 4.45404 37.2109 4.93581 36.9766C5.41758 36.7422 5.8082 36.4102 6.10768 35.9805C6.40716 35.5508 6.63503 34.75 6.79128 33.5781V7.79688H20.8538ZM22.7444 36V7.79688H46.9241V16.1953H31.9241V19.4375H41.6116V24.3594H31.9241V27.6016H49.3069V36H22.7444ZM53.3069 36V7.79688H69.9475C72.2001 7.79688 74.1858 8.09635 75.9046 8.69531C77.6233 9.29427 79.0751 10.1016 80.26 11.1172C81.4449 12.1328 82.428 13.5065 83.2092 15.2383C84.0035 16.9701 84.4007 19.2227 84.4007 21.9961C84.2574 24.5612 83.8277 26.7422 83.1116 28.5391C82.3954 30.3359 81.4449 31.7552 80.26 32.7969C79.0751 33.8385 77.6233 34.6458 75.9046 35.2188C74.1988 35.7917 72.0569 36.0521 69.4788 36H53.3069ZM62.721 14.7891V28.9688H68.0921C69.303 28.9688 70.2796 28.7148 71.0217 28.207C71.7639 27.6862 72.3694 27.0286 72.8382 26.2344C73.3069 25.4271 73.6064 23.9818 73.7366 21.8984C73.6975 19.9974 73.4306 18.5977 72.9358 17.6992C72.454 16.7878 71.829 16.0781 71.0608 15.5703C70.2926 15.0495 69.29 14.7891 68.053 14.7891H62.721ZM89.3772 7.79688H98.5569V36H89.3772V7.79688Z" fill="#222222"/>
</g>
</svg>
