<svg width="99" height="39" viewBox="0 0 99 39" fill="none" xmlns="http://www.w3.org/2000/svg">
<path d="M21.25 0.796875V9.19531H16.3672V29.1562C16.2891 31.3177 16.0547 32.8411 15.6641 33.7266C15.2734 34.612 14.5768 35.4453 13.5742 36.2266C12.5716 37.0078 11.3151 37.6003 9.80469 38.0039C8.29427 38.4076 6.92708 38.6745 5.70312 38.8047C4.47917 38.9349 2.85156 39 0.820312 39V30.6016C1.96615 30.6276 2.88411 30.5885 3.57422 30.4844C4.26432 30.3802 4.85026 30.2109 5.33203 29.9766C5.8138 29.7422 6.20443 29.4102 6.50391 28.9805C6.80339 28.5508 7.03125 27.75 7.1875 26.5781V0.796875H21.25ZM23.1406 29V0.796875H47.3203V9.19531H32.3203V12.4375H42.0078V17.3594H32.3203V20.6016H49.7031V29H23.1406ZM53.7031 29V0.796875H70.3438C72.5964 0.796875 74.582 1.09635 76.3008 1.69531C78.0195 2.29427 79.4714 3.10156 80.6562 4.11719C81.8411 5.13281 82.8242 6.50651 83.6055 8.23828C84.3997 9.97005 84.7969 12.2227 84.7969 14.9961C84.6536 17.5612 84.224 19.7422 83.5078 21.5391C82.7917 23.3359 81.8411 24.7552 80.6562 25.7969C79.4714 26.8385 78.0195 27.6458 76.3008 28.2188C74.5951 28.7917 72.4531 29.0521 69.875 29H53.7031ZM63.1172 7.78906V21.9688H68.4883C69.6992 21.9688 70.6758 21.7148 71.418 21.207C72.1602 20.6862 72.7656 20.0286 73.2344 19.2344C73.7031 18.4271 74.0026 16.9818 74.1328 14.8984C74.0938 12.9974 73.8268 11.5977 73.332 10.6992C72.8503 9.78776 72.2253 9.07812 71.457 8.57031C70.6888 8.04948 69.6862 7.78906 68.4492 7.78906H63.1172ZM89.7734 0.796875H98.9531V29H89.7734V0.796875Z" fill="#222222"/>
</svg>
